<?xml version="1.0" encoding="UTF-8"?>
<svg id="Layer_2" data-name="Layer 2" xmlns="http://www.w3.org/2000/svg" viewBox="0 0 91.54 10.47">
  <defs>
    <style>
      .cls-1 {
        fill: #1d1d1b;
      }

      .cls-2 {
        fill: #fff;
      }
    </style>
  </defs>
  <g id="Layer_1-2" data-name="Layer 1">
    <g>
      <rect class="cls-1" x="1.95" y=".28" width="3.5" height="2.35"/>
      <circle class="cls-2" cx="2.97" cy="1.55" r=".47"/>
      <circle class="cls-2" cx="4.41" cy="1.55" r=".47"/>
      <path class="cls-1" d="M3.72,3.82c-1.23,0-1.72-.88-1.72-.88h3.45s-.57.88-1.72.88Z"/>
      <path class="cls-1" d="M3.67,0c1.23,0,1.72.88,1.72.88H1.95s.57-.88,1.72-.88Z"/>
      <rect class="cls-1" x="2" y="3.7" width="3.4" height="3.4"/>
      <rect class="cls-1" x=".86" y="3.62" width=".95" height="2.83" transform="translate(3.95 .53) rotate(45)"/>
      <rect class="cls-1" x="2" y="6.21" width=".95" height="2.83"/>
      <rect class="cls-1" x="4.45" y="6.24" width=".95" height="2.83"/>
      <rect class="cls-1" x="5.58" y="3.62" width=".95" height="2.83" transform="translate(-1.79 5.75) rotate(-45)"/>
    </g>
    <g>
      <rect class="cls-1" x="53.84" y=".79" width="3.5" height="2.35"/>
      <circle class="cls-2" cx="54.87" cy="2.05" r=".47"/>
      <circle class="cls-2" cx="56.3" cy="2.05" r=".47"/>
      <path class="cls-1" d="M55.62,4.32c-1.23,0-1.72-.88-1.72-.88h3.45s-.57.88-1.72.88Z"/>
      <path class="cls-1" d="M55.57.5c1.23,0,1.72.88,1.72.88h-3.45s.57-.88,1.72-.88Z"/>
      <rect class="cls-1" x="53.9" y="4.21" width="3.4" height="3.4"/>
      <rect class="cls-1" x="52.76" y="4.13" width=".95" height="2.83" transform="translate(19.51 -36.02) rotate(45)"/>
      <rect class="cls-1" x="53.9" y="6.71" width=".95" height="2.83"/>
      <rect class="cls-1" x="56.35" y="6.75" width=".95" height="2.83"/>
      <rect class="cls-1" x="56.53" y="3.74" width="2.83" height=".94" transform="translate(14 42.21) rotate(-45)"/>
      <rect class="cls-1" x="47.79" y=".79" width="3.5" height="2.35"/>
      <circle class="cls-2" cx="48.82" cy="2.05" r=".47"/>
      <circle class="cls-2" cx="50.25" cy="2.05" r=".47"/>
      <path class="cls-1" d="M49.57,4.32c-1.23,0-1.72-.88-1.72-.88h3.45s-.57.88-1.72.88Z"/>
      <path class="cls-1" d="M49.52.5c1.23,0,1.72.88,1.72.88h-3.45s.57-.88,1.72-.88Z"/>
      <rect class="cls-1" x="47.84" y="4.21" width="3.4" height="3.4"/>
      <rect class="cls-1" x="46.71" y="2.53" width=".95" height="2.83" transform="translate(86.5 -22.42) rotate(141.38)"/>
      <rect class="cls-1" x="47.84" y="6.71" width=".95" height="2.83"/>
      <rect class="cls-1" x="50.3" y="6.75" width=".95" height="2.83"/>
      <rect class="cls-1" x="51.42" y="4.13" width=".95" height="2.83" transform="translate(11.28 38.32) rotate(-45)"/>
    </g>
    <g>
      <rect class="cls-1" x="36.15" y="6.97" width="3.5" height="2.35" transform="translate(69.97 29.93) rotate(-157.94)"/>
      <circle class="cls-2" cx="38.61" cy="8.34" r=".47"/>
      <circle class="cls-2" cx="37.28" cy="7.8" r=".47"/>
      <path class="cls-1" d="M38.76,5.95c1.14.46,1.27,1.47,1.27,1.47l-3.2-1.3s.86-.6,1.93-.17Z"/>
      <path class="cls-1" d="M37.38,9.51c-1.14-.46-1.27-1.47-1.27-1.47l3.2,1.3s-.86.6-1.93.17Z"/>
      <rect class="cls-1" x="37.68" y="2.79" width="3.4" height="3.4" transform="translate(74.19 23.45) rotate(-157.94)"/>
      <rect class="cls-1" x="40.56" y="5.07" width=".95" height="2.83" transform="translate(19.61 42.08) rotate(-67.94)"/>
      <rect class="cls-1" x="35.87" y="4.1" width=".95" height="2.83" transform="translate(46.87 40.73) rotate(-115.27)"/>
      <rect class="cls-1" x="40.54" y="1" width=".95" height="2.83" transform="translate(82.09 2.52) rotate(176.79)"/>
      <rect class="cls-1" x="38.45" y=".21" width=".95" height="2.83" transform="translate(77.87 1.06) rotate(176.79)"/>
    </g>
    <g>
      <rect class="cls-1" x="62.04" y="7.33" width="3.5" height="2.35" transform="translate(127.58 17) rotate(180)"/>
      <circle class="cls-2" cx="64.51" cy="8.41" r=".47"/>
      <circle class="cls-2" cx="63.08" cy="8.41" r=".47"/>
      <path class="cls-1" d="M63.76,6.14c1.23,0,1.72.88,1.72.88h-3.45s.57-.88,1.72-.88Z"/>
      <path class="cls-1" d="M63.81,9.96c-1.23,0-1.72-.88-1.72-.88h3.45s-.57.88-1.72.88Z"/>
      <rect class="cls-1" x="62.09" y="2.86" width="3.4" height="3.4" transform="translate(127.58 9.11) rotate(180)"/>
      <rect class="cls-1" x="65.59" y="4.37" width=".95" height="2.83" transform="translate(60.29 71.85) rotate(-90)"/>
      <rect class="cls-1" x="60.98" y="4.37" width=".95" height="2.83" transform="translate(55.67 67.23) rotate(-90)"/>
      <rect class="cls-1" x="64.04" y=".6" width=".95" height="2.83" transform="translate(123.71 -23.7) rotate(154.73)"/>
      <rect class="cls-1" x="61.81" y=".66" width=".95" height="2.83" transform="translate(119.49 -22.64) rotate(154.73)"/>
    </g>
    <g>
      <rect class="cls-1" x="84.22" y="1.73" width="3.5" height="2.35" transform="translate(151.51 -52.8) rotate(137.71)"/>
      <circle class="cls-2" cx="86.56" cy="2.48" r=".47"/>
      <circle class="cls-2" cx="85.5" cy="3.44" r=".47"/>
      <path class="cls-1" d="M87.54,4.67c.91-.82.68-1.81.68-1.81l-2.55,2.32s1.01.27,1.87-.51Z"/>
      <path class="cls-1" d="M85,1.8c-.91.82-.68,1.81-.68,1.81l2.55-2.32s-1.01-.27-1.87.51Z"/>
      <rect class="cls-1" x="86.92" y="4.12" width="3.4" height="3.4" transform="translate(158.09 -49.51) rotate(137.71)"/>
      <rect class="cls-1" x="89.61" y="2.62" width=".95" height="2.83" transform="translate(104.02 -85.05) rotate(96.33)"/>
      <rect class="cls-1" x="90.08" y="5.9" width=".95" height="2.83" transform="translate(181.1 14.64) rotate(-180)"/>
      <rect class="cls-1" x="88.33" y="7.02" width=".95" height="2.83" transform="translate(177.6 16.87) rotate(-180)"/>
      <rect class="cls-1" x="86.56" y="5.53" width=".95" height="2.83" transform="translate(172.61 -10.42) rotate(163.97)"/>
    </g>
    <g>
      <rect class="cls-1" x="21.12" y="6.53" width="3.5" height="2.35" transform="translate(45.74 15.41) rotate(180)"/>
      <circle class="cls-2" cx="23.59" cy="7.62" r=".47"/>
      <circle class="cls-2" cx="22.16" cy="7.62" r=".47"/>
      <path class="cls-1" d="M22.84,5.34c1.23,0,1.72.88,1.72.88h-3.45s.57-.88,1.72-.88Z"/>
      <path class="cls-1" d="M22.9,9.16c-1.23,0-1.72-.88-1.72-.88h3.45s-.57.88-1.72.88Z"/>
      <rect class="cls-1" x="21.17" y="2.06" width="3.4" height="3.4" transform="translate(45.74 7.52) rotate(180)"/>
      <rect class="cls-1" x="24.65" y="3.23" width=".82" height="5.15" transform="translate(-.08 11.25) rotate(-25.27)"/>
      <rect class="cls-1" x="24.09" y=".23" width=".95" height="2.83" transform="translate(43.78 17.05) rotate(-145.1)"/>
      <rect class="cls-1" x="21.17" y=".09" width=".95" height="2.83" transform="translate(43.29 3.02) rotate(180)"/>
      <rect class="cls-1" x="19.91" y="4.24" width=".92" height="4.15" transform="translate(7.28 -10.52) rotate(34.9)"/>
    </g>
    <g>
      <rect class="cls-1" x="70.45" y="1.87" width="3.5" height="2.35" transform="translate(130.86 45.25) rotate(-146.68)"/>
      <circle class="cls-2" cx="72.76" cy="3.51" r=".47"/>
      <circle class="cls-2" cx="71.56" cy="2.73" r=".47"/>
      <path class="cls-1" d="M70.88,5c1.02.67,1.93.21,1.93.21l-2.88-1.89s0,1.05.96,1.68Z"/>
      <path class="cls-1" d="M73.02,1.84c-1.02-.67-1.93-.21-1.93-.21l2.88,1.89s0-1.05-.96-1.68Z"/>
      <rect class="cls-1" x="68.34" y="4.64" width="3.4" height="3.4" transform="translate(125.07 50.11) rotate(-146.68)"/>
      <rect class="cls-1" x="72.65" y="3.21" width=".82" height="5.15" transform="translate(49.41 -63.57) rotate(66.65)"/>
      <rect class="cls-1" x="69.82" y="7.63" width=".95" height="2.83" transform="translate(140.8 16.14) rotate(178.42)"/>
      <rect class="cls-1" x="67.3" y="6.13" width=".95" height="2.83" transform="translate(120.26 51.08) rotate(-146.68)"/>
      <rect class="cls-1" x="68.89" y=".76" width=".92" height="4.15" transform="translate(-.05 1.91) rotate(-1.58)"/>
    </g>
    <g>
      <rect class="cls-1" x="8.33" y="2.01" width="3.5" height="2.35" transform="translate(.7 8.06) rotate(-45)"/>
      <circle class="cls-2" cx="9.63" cy="3.76" r=".47"/>
      <circle class="cls-2" cx="10.64" cy="2.74" r=".47"/>
      <path class="cls-1" d="M11.77,4.83c-.87.87-1.84.6-1.84.6l2.44-2.44s.22,1.03-.6,1.84Z"/>
      <path class="cls-1" d="M9.03,2.17c.87-.87,1.84-.6,1.84-.6l-2.44,2.44s-.22-1.03.6-1.84Z"/>
      <rect class="cls-1" x="11.17" y="4.27" width="3.4" height="3.4" transform="translate(-.45 10.85) rotate(-45)"/>
      <rect class="cls-1" x="9.77" y="5.97" width=".95" height="2.83" transform="translate(4.34 -3.78) rotate(26.33)"/>
      <rect class="cls-1" x="13.1" y="6.99" width=".95" height="2.83" transform="translate(-1.97 12.06) rotate(-45)"/>
      <rect class="cls-1" x="15.06" y="4.05" width=".95" height="2.83" transform="translate(14.64 21.91) rotate(-106.28)"/>
      <rect class="cls-1" x="12.93" y="1.1" width=".95" height="3.44" transform="translate(26.52 6.76) rotate(-175.19)"/>
    </g>
    <g>
      <rect class="cls-1" x="76.8" y="7.77" width="3.5" height="2.35" transform="translate(156.51 22.06) rotate(-176.94)"/>
      <circle class="cls-2" cx="79.28" cy="8.89" r=".47"/>
      <circle class="cls-2" cx="77.85" cy="8.81" r=".47"/>
      <path class="cls-1" d="M78.65,6.58c1.22.07,1.67.97,1.67.97l-3.44-.18s.61-.85,1.77-.79Z"/>
      <path class="cls-1" d="M78.5,10.4c-1.22-.07-1.67-.97-1.67-.97l3.44.18s-.61.85-1.77.79Z"/>
      <rect class="cls-1" x="77.06" y="3.3" width="3.4" height="3.4" transform="translate(157.14 14.2) rotate(-176.94)"/>
      <rect class="cls-1" x="81.09" y="4.59" width=".95" height="2.83" transform="translate(97.72 86.18) rotate(-105.61)"/>
      <rect class="cls-1" x="79.63" y="1.44" width=".95" height="2.83" transform="translate(159.94 9.98) rotate(-176.94)"/>
      <rect class="cls-1" x="76.13" y="1.94" width=".95" height="2.83" transform="translate(119.8 -60) rotate(121.79)"/>
      <rect class="cls-1" x="75.59" y="4.98" width=".95" height="3.44" transform="translate(35.5 -57.98) rotate(52.87)"/>
    </g>
    <g>
      <rect class="cls-1" x="32.52" y="1.32" width="3.5" height="2.35" transform="translate(10.6 -22.42) rotate(42.29)"/>
      <circle class="cls-2" cx="33.68" cy="2.07" r=".47"/>
      <circle class="cls-2" cx="34.74" cy="3.04" r=".47"/>
      <path class="cls-1" d="M32.7,4.26c-.91-.82-.68-1.81-.68-1.81l2.55,2.32s-1.01.27-1.87-.51Z"/>
      <path class="cls-1" d="M35.24,1.4c.91.82.68,1.81.68,1.81l-2.55-2.32s1.01-.27,1.87.51Z"/>
      <rect class="cls-1" x="29.92" y="3.71" width="3.4" height="3.4" transform="translate(11.87 -19.87) rotate(42.29)"/>
      <rect class="cls-1" x="29.69" y="2.22" width=".95" height="2.83" transform="translate(30.45 -26.75) rotate(83.67)"/>
      <rect class="cls-1" x="29.22" y="5.5" width=".95" height="2.83"/>
      <rect class="cls-1" x="30.97" y="6.62" width=".95" height="2.83"/>
      <rect class="cls-1" x="32.73" y="5.13" width=".95" height="2.83" transform="translate(3.1 -8.92) rotate(16.03)"/>
    </g>
  </g>
</svg>